<?xml version="1.0" encoding="utf-8"?>
<!-- Generator: Adobe Illustrator 18.0.0, SVG Export Plug-In . SVG Version: 6.00 Build 0)  -->
<!DOCTYPE svg PUBLIC "-//W3C//DTD SVG 1.1//EN" "http://www.w3.org/Graphics/SVG/1.1/DTD/svg11.dtd">
<svg version="1.1" id="图层_1" xmlns="http://www.w3.org/2000/svg" xmlns:xlink="http://www.w3.org/1999/xlink" x="0px" y="0px"
	 viewBox="420 0 1079.8 1080" enable-background="new 420 0 1079.8 1080" xml:space="preserve">
<circle fill="#FFFFFF" cx="960" cy="540" r="540"/>
<g id="icomoon-ignore">
</g>
<path fill="#6E5494" d="M960,0C661.7,0,420,241.7,420,540c0,238.6,154.8,441.1,369.4,512.4c27,5.1,36.9-11.8,36.9-25.9
	c0-12.9-0.4-55.5-0.6-100.6c-150.4,32.7-182-63.5-182-63.5c-24.5-62.4-59.9-79.1-59.9-79.1c-48.9-33.5,3.8-32.9,3.8-32.9
	c54.2,3.8,82.7,55.7,82.7,55.7c48.1,82.5,126.4,58.6,157.1,44.9c4.9-34.8,18.8-58.6,34.4-72.1c-120.2-13.7-246.4-60.1-246.4-267
	c0-58.9,21.1-107.2,55.7-144.9c-5.7-13.5-24-68.6,5.3-143c0,0,45.4-14.6,148.5,55.3c43-12,89.2-17.9,135.2-18.1
	c46,0.2,92.2,6.1,135.2,18.1c103.1-69.8,148.3-55.3,148.3-55.3c29.3,74.5,11,129.3,5.3,143c34.6,37.8,55.5,86.1,55.5,144.9
	c0,207.4-126.4,253.1-246.6,266.4c19.4,16.7,36.7,49.6,36.7,100c0,72.4-0.6,130.4-0.6,148.3c0,14.3,9.7,31.2,37.1,25.9
	C1345.4,980.9,1500,778.6,1500,540C1500,241.7,1258.3,0,960,0L960,0z"/>
</svg>
